<?xml version="1.0" standalone="yes"?>

<svg
        xmlns="http://www.w3.org/2000/svg"
        viewBox="0 0 200 200"
        width="32"
        height="32"
>

<path style="fill:#2196f3; stroke:none;" d="M93 16.4244C78.5595 18.3437 65.1627 21.7777 53 30.2052C43.418 36.8446 34.9759 45.0623 28.814 55C3.27476 96.1891 18.1315 153.254 62 175.191C78.1342 183.26 96.3345 185.22 114 182.715C124.954 181.161 135.62 176.999 145 171.186C195.757 139.73 196.443 61.5565 146 29.4359C138.003 24.3438 129.271 20.4998 120 18.4252C111.308 16.4802 101.874 15.2449 93 16.4244z"/>
<path style="fill:#00ffff; stroke:none;" d="M51 31L52 32L51 31M47 34L48 35L47 34z"/>
<path style="fill:#80c0f2; stroke:none;" d="M55 62C62.3995 65.1049 73.9926 63 82 63L144 63C136.6 59.8951 125.007 62 117 62L55 62z"/>
<path style="fill:#eceff1; stroke:none;" d="M50 65C52.4962 69.886 57.6101 72.5807 62 75.7091L87 93.5787C90.503 96.083 95.4356 101.162 100 101.162C104.564 101.162 109.497 96.083 113 93.5787L138 75.7091C142.39 72.5807 147.504 69.886 150 65C141.724 61.9838 132.698 63 124 63L79 63C69.6795 63 58.7093 61.3096 50 65z"/>
<path style="fill:#a3cff2; stroke:none;" d="M146 63L147 64L146 63z"/>
<path style="fill:#9fcdf1; stroke:none;" d="M51 64L52 65L51 64M148 64L149 65L148 64z"/>
<path style="fill:#90a4ae; stroke:none;" d="M49 66C47.6602 68.0309 45.9894 70.1937 46.4252 72.8171C46.8911 75.6222 49.9094 77.3287 52.0046 78.8596C57.2741 82.7098 62.6883 86.3521 68 90.1412C75.3164 95.3604 82.6364 100.568 90 105.72C92.845 107.71 96.2985 111.162 100 111.162C104.802 111.162 110.25 105.572 114 102.975C123.062 96.6999 132.04 90.2798 141 83.8596C144.64 81.2511 150.632 78.4245 152.957 74.4853C154.738 71.4678 152.636 68.4804 151 66C138.56 73.6781 126.894 82.9182 115 91.4213C111.115 94.1984 105.02 100.594 100 100.594C94.9796 100.594 88.8846 94.1983 85 91.4213C73.1057 82.9182 61.4398 73.6781 49 66z"/>
<path style="fill:#42a1ee; stroke:none;" d="M45 73L45 126C46.6611 122.041 46 117.26 46 113L46 88C46 83.1913 46.8752 77.4687 45 73M154 73L154 126C155.661 122.041 155 117.26 155 113L155 88C155 83.1913 155.875 77.4688 154 73z"/>
<path style="fill:#eceff1; stroke:none;" d="M46 75L46 115C46 120.687 44.7888 128.045 48.6528 132.786C53.6717 138.944 63.9887 137 71 137L129 137C136.011 137 146.328 138.944 151.347 132.786C155.211 128.045 154 120.687 154 115L154 75C148.463 77.1298 143.805 81.1436 139 84.5787L116 100.859C111.956 103.743 105.171 110.594 100 110.594C94.829 110.594 88.0435 103.743 84 100.859L61 84.5756C56.1729 81.1589 51.5455 77.1331 46 75z"/>
<path style="fill:#00ffff; stroke:none;" d="M16 92L17 93L16 92M183 92L184 93L183 92z"/>
<path style="fill:#70a7df; stroke:none;" d="M46 129L47 130L46 129z"/>
<path style="fill:#6da7de; stroke:none;" d="M153 129L154 130L153 129z"/>
<path style="fill:#1976d2; stroke:none;" d="M46 130C46.0529 136.304 47.339 142.696 54.0008 145.258C60.963 147.935 71.6052 146 79 146L123 146C129.809 146 138.454 147.404 145 145.347C152.308 143.051 153.943 136.817 154 130C151.197 132.559 148.598 135.533 145 136.991C138.198 139.746 128.24 138 121 138L73 138C67.0903 138 59.4402 139.267 54.0008 136.543C50.8882 134.985 48.5339 132.313 46 130z"/>
<path style="fill:#7bafe0; stroke:none;" d="M47 131L48 132L47 131z"/>
<path style="fill:#79ade0; stroke:none;" d="M152 131L153 132L152 131z"/>
<path style="fill:#00ffff; stroke:none;" d="M23 134L24 135L23 134z"/>
<path style="fill:#9ac0e5; stroke:none;" d="M51 135L52 136L51 135z"/>
<path style="fill:#99bfe5; stroke:none;" d="M148 135L149 136L148 135z"/>
<path style="fill:#9ec2e5; stroke:none;" d="M53 136L54 137L53 136z"/>
<path style="fill:#9dc2e5; stroke:none;" d="M146 136L147 137L146 136z"/>
<path style="fill:#65a1dd; stroke:none;" d="M55.6667 137.333C55.2222 137.778 56.2778 137.722 56.3333 137.667C56.7778 137.222 55.7222 137.278 55.6667 137.333z"/>
<path style="fill:#8ab6e3; stroke:none;" d="M57 137C64.3995 140.105 75.9927 138 84 138L143 138C135.601 134.895 124.007 137 116 137L57 137z"/>
<path style="fill:#4891d9; stroke:none;" d="M143.667 137.333C143.222 137.778 144.278 137.722 144.333 137.667C144.778 137.222 143.722 137.278 143.667 137.333z"/>
<path style="fill:#00ffff; stroke:none;" d="M168 148L169 149L168 148M34 152L35 153L34 152M165 152L166 153L165 152M47 165L48 166L47 165M51 168L52 169L51 168M134 176L135 177L134 176z"/>
</svg>
